<svg id="Group_48" data-name="Group 48" xmlns="http://www.w3.org/2000/svg" width="38.988" height="37.845" viewBox="0 0 38.988 37.845">
  <path id="Path_58" data-name="Path 58" d="M-1651.662-803.252l-.383,1.863c0,.012,0,.025-.007.038a1.768,1.768,0,0,1-1.352,1.6,8.564,8.564,0,0,0-1.906,1.033,4.52,4.52,0,0,1-2.066.835c-.933.055-1.447-.514-1.208-1.416.2-.76.533-1.485.751-2.242a11,11,0,0,0,.488-2.188,3.3,3.3,0,0,0-1.829-3.279,16.483,16.483,0,0,0-1.766-.7c-.513-.213-1.02-.444-1.513-.7a.414.414,0,0,1-.131-.369,4.794,4.794,0,0,0,.15-2.043.536.536,0,0,1,.164-.418,4.5,4.5,0,0,1,.848-.582,11.53,11.53,0,0,0,3.82-2.569,11.414,11.414,0,0,1,5.622,7.342c.138.539.214,1.095.319,1.642Z" transform="translate(1690.65 830.67)" fill="#fff"/>
  <path id="Path_59" data-name="Path 59" d="M-1852.75-950.643c-.818-1.635-1.6-3.206-2.39-4.778q-1.273-2.547-2.545-5.1c-.348-.7-.8-.784-1.341-.235a48.574,48.574,0,0,1-6.534,5.172,1.384,1.384,0,0,0-.7,1.878c.127.519.228,1.048.4,1.553a.648.648,0,0,1-.378.888l-5.2-5.236a.64.64,0,0,1,.866-.367c.555.181,1.131.3,1.7.443a1.293,1.293,0,0,0,1.642-.608c.721-1.006,1.405-2.04,2.175-3.008.984-1.237,2.025-2.429,3.065-3.619.548-.628.5-1.025-.238-1.395l-9.4-4.7c-.123-.062-.243-.131-.413-.224a3.163,3.163,0,0,1,1.862-.986,4.563,4.563,0,0,1,1.991.256c3.2.876,6.408,1.745,9.608,2.634a1.252,1.252,0,0,0,1.347-.358c1.181-1.183,2.357-2.373,3.585-3.507a5.935,5.935,0,0,1,3.055-1.568,9.578,9.578,0,0,1,1.142-.056c.222-.01.27.112.28.311a4.7,4.7,0,0,1-.695,2.664,13.858,13.858,0,0,1-1.489,2.122c-1.072,1.215-2.207,2.375-3.343,3.531a1.3,1.3,0,0,0-.347,1.484q1.593,4.7,3.147,9.419A3.2,3.2,0,0,1-1852.75-950.643Z" transform="translate(1878.668 973.558)" fill="#fff"/>
  <path id="Path_60" data-name="Path 60" d="M-1749.771-780.931c-.359.468-.686.964-1.083,1.4-.482.524-1.023.993-1.536,1.489a.549.549,0,0,1-.587.124,12.505,12.505,0,0,0-6.61-.023,8.214,8.214,0,0,0-3.073,1.657.512.512,0,0,1-.616.1c-.567-.258-1.138-.508-1.71-.755a.264.264,0,0,1-.176-.382,5.675,5.675,0,0,0,.115-3.132,5.7,5.7,0,0,1,.464-3.567,11.041,11.041,0,0,0,.6-2.237,1.971,1.971,0,0,0-1.367-2.252,15.643,15.643,0,0,0-1.986-.535,3.317,3.317,0,0,1-2.577-2.445.691.691,0,0,1-.022-.444,10.508,10.508,0,0,1,2.25-3.213c.234.664.628,1.19,1.308,1.222a9.971,9.971,0,0,0,1.823-.234l.025-.127c.064.118.133.234.193.355q.992,1.982,1.982,3.966a1.258,1.258,0,0,0,2.241.338c.132-.136.259-.278.412-.443a6.415,6.415,0,0,0,2.55,1.078,3.109,3.109,0,0,1,.466.168,2.346,2.346,0,0,1,1.536,3.01c-.188.749-.513,1.463-.738,2.2a8.652,8.652,0,0,0-.435,1.807,2.347,2.347,0,0,0,2.752,2.536,5.821,5.821,0,0,0,2.5-.984c.4-.259.8-.512,1.207-.768Z" transform="translate(1787.031 813.408)" fill="#fff"/>
  <path id="Path_61" data-name="Path 61" d="M-1936.783-838.031a19.679,19.679,0,0,1,2.644-9.506,20.523,20.523,0,0,1,2.87-4,1.045,1.045,0,0,1,.677-.336.661.661,0,0,1,.441,1.108c-.3.381-.635.734-.931,1.117a20.071,20.071,0,0,0-4.138,9.207,10.794,10.794,0,0,0,2.282,9.076,13.137,13.137,0,0,0,4.37,3.286c.206.1.417.192.617.3a.673.673,0,0,1,.346.9.672.672,0,0,1-.937.321,16.465,16.465,0,0,1-4.016-2.489,11.529,11.529,0,0,1-4.037-7.127C-1936.709-836.886-1936.742-837.615-1936.783-838.031Z" transform="translate(1936.783 864.325)" fill="#fff"/>
  <path id="Path_62" data-name="Path 62" d="M-1775.885-730.955a11.283,11.283,0,0,1-4.269-11.9c.034.011.085.012.1.035a4.564,4.564,0,0,0,3.31,2.1,8.936,8.936,0,0,1,1.293.325.851.851,0,0,1,.644,1.183c-.26.928-.561,1.846-.88,2.756a5.427,5.427,0,0,0-.161,3.01A4.791,4.791,0,0,1-1775.885-730.955Z" transform="translate(1796.5 766.46)" fill="#fff"/>
  <path id="Path_63" data-name="Path 63" d="M-1890.194-756.952a7.461,7.461,0,0,1,1.869-5.054.674.674,0,0,1,1.011-.121.662.662,0,0,1,.033.988c-1.924,2.26-1.9,4.736-.763,7.3a10.473,10.473,0,0,0,3.607,4.182c.145.1.3.2.435.312a.689.689,0,0,1,.194.946.653.653,0,0,1-.972.16,27.947,27.947,0,0,1-2.532-2.149,9.722,9.722,0,0,1-2.7-5.133C-1890.111-756.06-1890.152-756.609-1890.194-756.952Z" transform="translate(1894.962 783.922)" fill="#fff"/>
  <path id="Path_64" data-name="Path 64" d="M-1842.282-726.072a4.32,4.32,0,0,1,1.014-2.864.685.685,0,0,1,1.042-.1.6.6,0,0,1,.1.834c-1.287,1.658-.821,3.317.027,4.938a11.372,11.372,0,0,0,1.23,1.645.7.7,0,0,1,.114.813.618.618,0,0,1-.706.335.729.729,0,0,1-.367-.182A7.878,7.878,0,0,1-1842.282-726.072Z" transform="translate(1851.952 754.236)" fill="#fff"/>
  <path id="Path_65" data-name="Path 65" d="M-1669.7-827.512c-1.122,1.233-2.7,1.615-4.006,2.5-.307-.913-.611-1.8-.9-2.692-.066-.2.329-.621.591-.626A10.975,10.975,0,0,1-1669.7-827.512Z" transform="translate(1701.446 843.192)" fill="#fff"/>
  <path id="Path_66" data-name="Path 66" d="M-1684.651-616.6c2.171-1.474,4.473-1.5,6.84-1.154A11.134,11.134,0,0,1-1684.651-616.6Z" transform="translate(1710.452 654.329)" fill="#fff"/>
  <path id="Path_67" data-name="Path 67" d="M-1685.133-861.859c-.221-.656-.432-1.252-.616-1.857a.481.481,0,0,1,.084-.361,2.309,2.309,0,0,1,.4-.4.447.447,0,0,1,.651,0c.25.234.494.477.728.727a.432.432,0,0,1,.01.648C-1684.27-862.7-1684.681-862.306-1685.133-861.859Z" transform="translate(1711.447 875.771)" fill="#fff"/>
  <path id="Path_68" data-name="Path 68" d="M-1782.209-954.833c.383-.372.7-.7,1.038-1a.442.442,0,0,1,.65.027q.356.344.7.7a.457.457,0,0,1,.051.623.418.418,0,0,1-.549.167C-1780.912-954.5-1781.515-954.646-1782.209-954.833Z" transform="translate(1798.027 957.764)" fill="#fff"/>
  <path id="Path_69" data-name="Path 69" d="M-1865.013-867.34a.705.705,0,0,1-.683.686.7.7,0,0,1-.68-.683.682.682,0,0,1,.678-.679A.691.691,0,0,1-1865.013-867.34Z" transform="translate(1873.581 878.816)" fill="#fff"/>
  <path id="Path_70" data-name="Path 70" d="M-1733.54-810.631c-.305.093-.554.185-.812.242-.331.074-.512-.085-.428-.412.106-.414.274-.812.416-1.216l.113-.006Z" transform="translate(1755.469 828.554)" fill="#fff"/>
  <path id="Path_71" data-name="Path 71" d="M-1824.43-898.673c-.422.151-.838.323-1.268.444-.275.077-.459-.076-.406-.373a8.51,8.51,0,0,1,.25-.867l1.405.7Z" transform="translate(1837.438 907.051)" fill="#fff"/>
</svg>
