<svg xmlns="http://www.w3.org/2000/svg" width="251.459" height="40.001" viewBox="0 0 251.459 40.001">
  <g id="Group_6333" data-name="Group 6333" transform="translate(-352.541 -7003.743)">
    <text id="advancedaog" transform="translate(397 7033)" fill="#fff" font-size="27" font-family="Aileron-Bold, Aileron" font-weight="700"><tspan x="0" y="0">ADVANCEDAOG</tspan></text>
    <g id="Group_46" data-name="Group 46" transform="translate(352.541 7003.743)">
      <path id="Path_44" data-name="Path 44" d="M-1651.04-802.618l-.4,1.969c0,.013,0,.027-.007.04a1.868,1.868,0,0,1-1.429,1.7,9.047,9.047,0,0,0-2.015,1.092,4.78,4.78,0,0,1-2.184.883c-.986.058-1.529-.543-1.277-1.5.212-.8.563-1.57.794-2.37a11.63,11.63,0,0,0,.515-2.312,3.484,3.484,0,0,0-1.933-3.465,17.445,17.445,0,0,0-1.867-.74c-.542-.225-1.078-.469-1.6-.738a.438.438,0,0,1-.139-.39,5.07,5.07,0,0,0,.159-2.159.566.566,0,0,1,.173-.442,4.763,4.763,0,0,1,.9-.616,12.186,12.186,0,0,0,4.038-2.715,12.064,12.064,0,0,1,5.943,7.76c.145.57.226,1.157.337,1.736Z" transform="translate(1692.249 831.598)" fill="#fff"/>
      <path id="Path_45" data-name="Path 45" d="M-1851.65-949.337c-.865-1.728-1.7-3.389-2.526-5.05q-1.345-2.693-2.689-5.386c-.367-.735-.843-.828-1.418-.248a51.3,51.3,0,0,1-6.906,5.467,1.463,1.463,0,0,0-.739,1.985c.135.549.241,1.107.42,1.642a.685.685,0,0,1-.4.939l-5.5-5.535a.677.677,0,0,1,.916-.388c.587.191,1.2.318,1.8.468a1.366,1.366,0,0,0,1.736-.643c.762-1.063,1.485-2.157,2.3-3.179,1.04-1.307,2.14-2.567,3.24-3.826.58-.664.531-1.083-.251-1.474l-9.935-4.964c-.131-.065-.257-.139-.437-.237a3.342,3.342,0,0,1,1.968-1.043,4.825,4.825,0,0,1,2.1.27c3.386.926,6.773,1.845,10.155,2.784a1.323,1.323,0,0,0,1.423-.379c1.249-1.25,2.492-2.509,3.789-3.707a6.271,6.271,0,0,1,3.229-1.658,10.14,10.14,0,0,1,1.208-.059c.235-.011.285.119.3.328a4.975,4.975,0,0,1-.735,2.816,14.661,14.661,0,0,1-1.574,2.244c-1.133,1.284-2.333,2.51-3.533,3.732a1.377,1.377,0,0,0-.367,1.568q1.684,4.971,3.327,9.955A3.377,3.377,0,0,1-1851.65-949.337Z" transform="translate(1879.045 973.558)" fill="#fff"/>
      <path id="Path_46" data-name="Path 46" d="M-1748.62-780.121c-.379.495-.725,1.019-1.145,1.476-.509.554-1.082,1.05-1.624,1.574a.581.581,0,0,1-.621.131,13.216,13.216,0,0,0-6.987-.024,8.68,8.68,0,0,0-3.248,1.751.541.541,0,0,1-.651.107c-.6-.273-1.2-.537-1.807-.8a.279.279,0,0,1-.185-.4,6,6,0,0,0,.121-3.311,6.031,6.031,0,0,1,.49-3.77,11.668,11.668,0,0,0,.638-2.365,2.083,2.083,0,0,0-1.445-2.381,16.535,16.535,0,0,0-2.1-.566,3.506,3.506,0,0,1-2.723-2.584.733.733,0,0,1-.023-.47,11.109,11.109,0,0,1,2.378-3.4c.248.7.664,1.258,1.383,1.292a10.545,10.545,0,0,0,1.927-.247l.027-.134c.068.125.14.248.2.375q1.048,2.1,2.095,4.192a1.329,1.329,0,0,0,2.369.357c.14-.144.274-.294.435-.468a6.78,6.78,0,0,0,2.695,1.139,3.285,3.285,0,0,1,.493.178,2.48,2.48,0,0,1,1.623,3.181c-.2.792-.542,1.547-.78,2.33a9.131,9.131,0,0,0-.46,1.91,2.48,2.48,0,0,0,2.909,2.68,6.155,6.155,0,0,0,2.642-1.04c.423-.274.851-.542,1.276-.812Z" transform="translate(1788.004 814.448)" fill="#fff"/>
      <path id="Path_47" data-name="Path 47" d="M-1936.783-837.242a20.8,20.8,0,0,1,2.795-10.048,21.707,21.707,0,0,1,3.034-4.227,1.106,1.106,0,0,1,.716-.355.7.7,0,0,1,.466,1.171c-.316.4-.671.775-.984,1.18a21.211,21.211,0,0,0-4.374,9.731,11.409,11.409,0,0,0,2.412,9.594,13.882,13.882,0,0,0,4.619,3.473c.218.107.44.2.652.319a.711.711,0,0,1,.365.951.71.71,0,0,1-.99.339,17.39,17.39,0,0,1-4.245-2.631,12.185,12.185,0,0,1-4.267-7.533C-1936.705-836.033-1936.74-836.8-1936.783-837.242Z" transform="translate(1936.783 865.034)" fill="#fff"/>
      <path id="Path_48" data-name="Path 48" d="M-1775.622-730.277a11.926,11.926,0,0,1-4.512-12.574c.036.012.09.013.1.037a4.824,4.824,0,0,0,3.5,2.218,9.439,9.439,0,0,1,1.367.343.9.9,0,0,1,.68,1.25c-.275.981-.593,1.951-.931,2.912a5.734,5.734,0,0,0-.17,3.181A5.063,5.063,0,0,1-1775.622-730.277Z" transform="translate(1797.412 767.805)" fill="#fff"/>
      <path id="Path_49" data-name="Path 49" d="M-1890.194-756.647a7.887,7.887,0,0,1,1.976-5.342.713.713,0,0,1,1.068-.128.7.7,0,0,1,.035,1.044c-2.034,2.389-2.007,5.006-.806,7.714a11.065,11.065,0,0,0,3.812,4.421c.153.111.313.213.46.33a.729.729,0,0,1,.2,1,.69.69,0,0,1-1.027.169,29.482,29.482,0,0,1-2.676-2.271,10.275,10.275,0,0,1-2.855-5.425C-1890.107-755.7-1890.15-756.284-1890.194-756.647Z" transform="translate(1895.233 785.154)" fill="#fff"/>
      <path id="Path_50" data-name="Path 50" d="M-1842.282-725.892a4.567,4.567,0,0,1,1.072-3.028.724.724,0,0,1,1.1-.106.636.636,0,0,1,.109.882c-1.36,1.752-.867,3.506.028,5.22a12.016,12.016,0,0,0,1.3,1.739.736.736,0,0,1,.12.859.654.654,0,0,1-.746.354.771.771,0,0,1-.387-.193A8.328,8.328,0,0,1-1842.282-725.892Z" transform="translate(1852.504 755.661)" fill="#fff"/>
      <path id="Path_51" data-name="Path 51" d="M-1669.424-827.465c-1.186,1.3-2.849,1.707-4.234,2.643-.324-.965-.646-1.9-.952-2.845-.07-.214.348-.657.625-.661A11.6,11.6,0,0,1-1669.424-827.465Z" transform="translate(1702.974 844.039)" fill="#fff"/>
      <path id="Path_52" data-name="Path 52" d="M-1684.651-616.524c2.294-1.557,4.728-1.589,7.229-1.219A11.768,11.768,0,0,1-1684.651-616.524Z" transform="translate(1711.922 656.403)" fill="#fff"/>
      <path id="Path_53" data-name="Path 53" d="M-1685.1-861.7c-.233-.693-.456-1.324-.651-1.963a.509.509,0,0,1,.089-.382,2.434,2.434,0,0,1,.424-.427.473.473,0,0,1,.688,0c.264.247.522.5.769.768a.457.457,0,0,1,.011.685C-1684.185-862.59-1684.619-862.174-1685.1-861.7Z" transform="translate(1712.91 876.406)" fill="#fff"/>
      <path id="Path_54" data-name="Path 54" d="M-1782.209-954.769c.405-.393.739-.739,1.1-1.057a.468.468,0,0,1,.688.029c.251.242.5.489.738.741a.484.484,0,0,1,.053.658.441.441,0,0,1-.58.177C-1780.839-954.414-1781.475-954.571-1782.209-954.769Z" transform="translate(1798.928 957.866)" fill="#fff"/>
      <path id="Path_55" data-name="Path 55" d="M-1864.935-867.3a.745.745,0,0,1-.721.725.736.736,0,0,1-.719-.722.721.721,0,0,1,.716-.718A.73.73,0,0,1-1864.935-867.3Z" transform="translate(1873.991 879.432)" fill="#fff"/>
      <path id="Path_56" data-name="Path 56" d="M-1733.468-810.552c-.323.1-.586.2-.858.256-.35.078-.541-.089-.453-.436.112-.437.29-.858.44-1.286l.119-.007Z" transform="translate(1756.647 829.496)" fill="#fff"/>
      <path id="Path_57" data-name="Path 57" d="M-1824.334-898.628c-.446.159-.885.342-1.341.469-.291.081-.485-.081-.429-.395a8.975,8.975,0,0,1,.264-.916l1.486.736Z" transform="translate(1838.083 907.483)" fill="#fff"/>
    </g>
  </g>
</svg>
